<svg xmlns="http://www.w3.org/2000/svg" viewBox="0 0 120 120" id="arrow-right"><path fill="#112b3c" d="m95 63.2.3-.6c.1-.2.2-.4.2-.6.1-.2.1-.4.2-.6 0-.2.1-.4.1-.7v-1.4c0-.2-.1-.4-.1-.7 0-.2-.1-.4-.2-.6-.1-.2-.1-.4-.2-.6l-.3-.6-.3-.6c-.1-.2-.3-.4-.4-.6-.1-.1-.1-.2-.2-.2L70.2 28.7c-2.5-2.8-6.9-3.1-9.7-.5-2.8 2.5-3.1 6.9-.5 9.7l13.7 15.3H31.1c-3.8 0-6.9 3.1-6.9 6.9 0 3.8 3.1 6.9 6.9 6.9h42.5L59.9 82.2c-2.5 2.8-2.3 7.2.5 9.7 1.3 1.2 2.9 1.7 4.6 1.7 1.9 0 3.8-.8 5.1-2.3L94 64.6c.1-.1.1-.2.2-.2.2-.2.3-.4.4-.6.2-.2.3-.4.4-.6z"></path></svg>